<?xml version="1.0" standalone="no"?>
<!DOCTYPE svg PUBLIC "-//W3C//DTD SVG 20010904//EN"
 "http://www.w3.org/TR/2001/REC-SVG-20010904/DTD/svg10.dtd">
<svg version="1.0" xmlns="http://www.w3.org/2000/svg"
 width="300.000000pt" height="235.000000pt" viewBox="0 0 300.000000 235.000000"
 preserveAspectRatio="xMidYMid meet">
<metadata>
Created by potrace 1.10, written by Peter Selinger 2001-2011
</metadata>
<g transform="translate(0.000000,235.000000) scale(0.100000,-0.100000)"
fill="#000000" stroke="none">
<path d="M2120 2050 c-39 -39 -28 -58 108 -190 l129 -125 -741 3 c-450 1 -770
-2 -814 -8 -125 -17 -216 -77 -270 -177 -38 -73 -52 -153 -52 -308 0 -141 9
-168 59 -173 18 -2 39 2 45 8 7 7 13 77 16 188 5 155 8 182 27 217 25 47 64
85 113 111 33 18 76 19 825 21 l790 3 -40 -37 c-162 -149 -215 -203 -215 -222
0 -27 34 -61 60 -61 35 0 400 342 400 375 0 29 -369 395 -398 395 -12 0 -31
-9 -42 -20z m223 -192 c99 -97 167 -171 167 -181 0 -11 -35 -51 -77 -91 -278
-259 -264 -248 -278 -225 -4 6 43 58 104 117 117 113 130 137 89 166 -20 14
-110 16 -778 16 -861 0 -825 3 -913 -78 -79 -74 -91 -109 -97 -296 -4 -115 -8
-161 -17 -164 -10 -3 -13 35 -13 166 0 168 0 169 30 230 35 68 82 115 149 146
45 21 59 21 838 26 792 5 792 5 814 26 29 30 19 47 -108 175 -92 93 -115 129
-85 129 4 0 83 -73 175 -162z"/>
<path d="M2400 1310 c-12 -7 -16 -44 -20 -187 -5 -147 -9 -184 -24 -213 -26
-49 -64 -88 -111 -113 -40 -22 -42 -22 -830 -24 l-790 -3 40 37 c171 157 215
202 215 222 0 27 -34 61 -60 61 -35 0 -400 -342 -400 -375 0 -29 369 -395 398
-395 28 0 62 34 62 63 0 15 -38 59 -129 147 l-129 125 792 0 c754 0 793 1 841
19 106 40 177 110 219 214 27 69 36 370 12 407 -17 26 -57 33 -86 15z m50
-208 c0 -168 0 -169 -30 -230 -33 -65 -76 -109 -143 -144 l-42 -23 -796 -5
c-766 -5 -798 -6 -818 -24 -12 -11 -21 -26 -21 -33 0 -8 53 -68 117 -134 87
-89 114 -122 105 -131 -18 -18 -352 301 -352 337 0 18 -3 15 174 180 153 143
164 151 179 136 8 -8 -19 -40 -101 -118 -118 -114 -131 -138 -90 -167 20 -14
111 -16 785 -16 742 0 764 1 817 20 37 14 69 36 101 71 71 75 78 101 82 274 4
159 6 175 23 175 6 0 10 -59 10 -168z"/>
</g>
</svg>
